<?xml version="1.0" encoding="UTF-8" standalone="no"?>
<!-- Created with Inkscape (http://www.inkscape.org/) -->

<svg
   xmlns:dc="http://purl.org/dc/elements/1.1/"
   xmlns:cc="http://creativecommons.org/ns#"
   xmlns:rdf="http://www.w3.org/1999/02/22-rdf-syntax-ns#"
   xmlns:svg="http://www.w3.org/2000/svg"
   xmlns="http://www.w3.org/2000/svg"
   xmlns:sodipodi="http://sodipodi.sourceforge.net/DTD/sodipodi-0.dtd"
   xmlns:inkscape="http://www.inkscape.org/namespaces/inkscape"
   width="960"
   height="180"
   id="svg2"
   version="1.1"
   inkscape:version="0.48.5 r10040"
   sodipodi:docname="Title - Regio Scientiae 960x180.svg"
   inkscape:export-filename="C:\Users\Jvanscoyoc\git\RegioScientiae\DevAssets\Title - Regio Scientiae 960x180.png"
   inkscape:export-xdpi="90"
   inkscape:export-ydpi="90">
  <defs
     id="defs4">
    <filter
       inkscape:label="Drop Shadow"
       inkscape:menu="Shadows and Glows"
       inkscape:menu-tooltip="Darken the edges with an inner blur"
       color-interpolation-filters="sRGB"
       id="filter3109"
       style="color-interpolation-filters:sRGB;">
      <feGaussianBlur
         result="result6"
         stdDeviation="1.5"
         id="feGaussianBlur3111" />
      <feComposite
         in2="result6"
         operator="atop"
         in="SourceGraphic"
         result="result8"
         id="feComposite3113" />
      <feComposite
         in="result8"
         in2="SourceAlpha"
         operator="atop"
         result="fbSourceGraphic"
         id="feComposite3115" />
      <feColorMatrix
         result="fbSourceGraphicAlpha"
         in="fbSourceGraphic"
         values="0 0 0 -1 0 0 0 0 -1 0 0 0 0 -1 0 0 0 0 1 0"
         id="feColorMatrix3117" />
      <feFlood
         id="feFlood3119"
         flood-opacity="0.5"
         flood-color="rgb(0,0,0)"
         result="flood"
         in="fbSourceGraphic" />
      <feComposite
         id="feComposite3121"
         in2="fbSourceGraphic"
         in="flood"
         operator="in"
         result="composite1" />
      <feGaussianBlur
         id="feGaussianBlur3123"
         in="composite"
         stdDeviation="2"
         result="blur" />
      <feOffset
         id="feOffset3125"
         dx="4"
         dy="4"
         result="offset" />
      <feComposite
         id="feComposite3127"
         in2="offset"
         in="fbSourceGraphic"
         operator="over"
         result="composite2" />
    </filter>
  </defs>
  <sodipodi:namedview
     id="base"
     pagecolor="#ffffff"
     bordercolor="#666666"
     borderopacity="1.0"
     inkscape:pageopacity="0.0"
     inkscape:pageshadow="2"
     inkscape:zoom="1.4"
     inkscape:cx="411.58116"
     inkscape:cy="36.764259"
     inkscape:document-units="px"
     inkscape:current-layer="layer1"
     showgrid="false"
     inkscape:window-width="1280"
     inkscape:window-height="720"
     inkscape:window-x="-8"
     inkscape:window-y="-31"
     inkscape:window-maximized="1" />
  <metadata
     id="metadata7">
    <rdf:RDF>
      <cc:Work
         rdf:about="">
        <dc:format>image/svg+xml</dc:format>
        <dc:type
           rdf:resource="http://purl.org/dc/dcmitype/StillImage" />
        <dc:title />
      </cc:Work>
    </rdf:RDF>
  </metadata>
  <g
     inkscape:label="Layer 1"
     inkscape:groupmode="layer"
     id="layer1"
     transform="translate(0,-872.3622)">
    <text
       xml:space="preserve"
       style="font-size:40px;font-style:normal;font-weight:normal;line-height:125%;letter-spacing:0px;word-spacing:0px;fill:#000000;fill-opacity:1;stroke:none;filter:url(#filter3109);font-family:Sans"
       x="42.766113"
       y="999.02173"
       id="text2985"
       sodipodi:linespacing="125%"><tspan
         sodipodi:role="line"
         id="tspan2987"
         x="42.766113"
         y="999.02173"
         style="font-size:120px;font-style:normal;font-variant:normal;font-weight:normal;font-stretch:normal;fill:#aa0000;font-family:Balthazar;-inkscape-font-specification:Balthazar">REGIO SCIENTIAE</tspan></text>
    <path
       inkscape:tile-y0="141.0526"
       inkscape:tile-x0="115.59055"
       sodipodi:nodetypes="csscccssc"
       inkscape:connector-curvature="0"
       id="use4077"
       d="m -401.98897,-194.48889 c 0,0 1.5642,60.66423 2.4971,91.10316 0.9295,30.32946 0.5592,60.74456 1.118,91.10314 0.5592,30.38052 4.211,111.11011 4.211,111.11011 l 11.1801,71.09618 -11.1801,71.09618 c 0,0 -3.6518,80.7296 -4.211,111.11012 -0.5588,30.35857 -0.1885,60.77367 -1.118,91.10313 -0.9329,30.43893 -2.4971,91.10316 -2.4971,91.10316"
       style="fill:#aa0000;fill-opacity:1;stroke:#aa0000;stroke-width:0.99372083;stroke-linecap:butt;stroke-linejoin:miter;stroke-miterlimit:4;stroke-opacity:1;stroke-dasharray:none" />
    <path
       inkscape:tile-y0="141.0526"
       inkscape:tile-x0="115.59055"
       sodipodi:nodetypes="csscccssc"
       inkscape:connector-curvature="0"
       id="use4081"
       d="m 326.8299,-194.48889 c 0,0 1.5642,60.66423 2.4971,91.10316 0.9295,30.32946 0.5592,60.74456 1.118,91.10314 0.5592,30.38052 4.211,111.11011 4.211,111.11011 l 11.1801,71.09618 -11.1801,71.09618 c 0,0 -3.6518,80.7296 -4.211,111.11012 -0.5588,30.35857 -0.1885,60.77367 -1.118,91.10313 -0.9329,30.43893 -2.4971,91.10316 -2.4971,91.10316"
       style="fill:#aa0000;fill-opacity:1;stroke:#aa0000;stroke-width:0.99372083;stroke-linecap:butt;stroke-linejoin:miter;stroke-miterlimit:4;stroke-opacity:1;stroke-dasharray:none" />
    <path
       id="path4083"
       style="fill:#aa0000;fill-opacity:1;stroke:#aa0000;stroke-width:0.99372083;stroke-linecap:butt;stroke-linejoin:miter;stroke-miterlimit:4;stroke-opacity:1;stroke-dasharray:none"
       d="m 94.158839,1032.8591 c 0,0 60.664231,1.5642 91.103161,2.4971 30.32946,0.9295 60.74456,0.5592 91.10314,1.118 30.38052,0.5592 111.11011,4.211 111.11011,4.211 l 71.09618,11.1801 71.09618,-11.1801 c 0,0 80.7296,-3.6518 111.11012,-4.211 30.35857,-0.5588 60.77367,-0.1885 91.10313,-1.118 30.43893,-0.9329 91.10316,-2.4971 91.10316,-2.4971 m -728.825181,-0.9938 c 0,0 60.664231,-1.5642 91.103161,-2.4971 30.32946,-0.9295 60.74456,-0.5592 91.10314,-1.118 30.38052,-0.5592 111.11011,-4.211 111.11011,-4.211 l 71.09618,-11.1801 71.09618,11.1801 c 0,0 80.7296,3.6518 111.11012,4.211 30.35857,0.5588 60.77367,0.1885 91.10313,1.118 30.43893,0.9329 91.10316,2.4971 91.10316,2.4971" />
  </g>
</svg>
